# xmcd CD database file
#
# Track frame offsets:
#	150
#	10997
#	21898
#	31371
#	44450
#	59819
#	63850
#	80087
#	92818
#	101577
#	129933
#	139216
#	153781
#	166994
#	181346
#	192207
#	200232
#	212369
#	217328
#	230639
#
# Disc length: 3235 seconds
#
# Revision: 0
# Processed by: cddbd v1.5.1PL0 Copyright (c) Steve Scherf et al.
# Submitted via: CDex 1.51
#
DISCID=230ca114
DTITLE=Ikasas Ikuy - The Best of Ikasas Ikuy disk2
DYEAR=2005
DGENRE=Blues
TTITLE0=Mississippi Blues
TTITLE1=琵琶湖大鯰
TTITLE2=今夜はカニ鍋で
TTITLE3=上新庄ブルース
TTITLE4=雪の宵
TTITLE5=Dueling Ukulele
TTITLE6=I'm Osakan
TTITLE7=河内バウンド
TTITLE8=Scarborogh Fair
TTITLE9=ケタコ一匹一億点
TTITLE10=貧乏
TTITLE11=トランジスタラジオブルース
TTITLE12=しぬぐ
TTITLE13=西宮ファイヤー
TTITLE14=Meque Meque
TTITLE15=Matsuko
TTITLE16=ガレージブルース
TTITLE17=空を駆ける風
TTITLE18=Too Many Drivers
TTITLE19=A-Min
EXTD=YEAR: 2005
EXTT0=
EXTT1=
EXTT2=
EXTT3=
EXTT4=
EXTT5=
EXTT6=
EXTT7=
EXTT8=
EXTT9=
EXTT10=
EXTT11=
EXTT12=
EXTT13=
EXTT14=
EXTT15=
EXTT16=
EXTT17=
EXTT18=
EXTT19=
PLAYORDER=
